<svg xmlns="http://www.w3.org/2000/svg" viewBox="0 7 349.6000061035156 36.75" data-asc="0.86"><g fill="#0d6efd"><g fill="#0d6efd" transform="translate(0, 0)"><path d="M9.25 43L1.80 43Q0.85 43 0.42 42.58Q0 42.15 0 41.20L0 8.80Q0 7.85 0.42 7.42Q0.85 7 1.80 7L9.85 7Q10.65 7 11.18 7.35Q11.70 7.70 12.15 8.50L16.65 16.65Q16.90 17.10 17.08 17.30Q17.25 17.50 17.55 17.50L18.00 17.50Q18.30 17.50 18.48 17.30Q18.65 17.10 18.90 16.65L23.35 8.50Q23.80 7.70 24.33 7.35Q24.85 7 25.65 7L33.75 7Q34.70 7 35.13 7.42Q35.55 7.85 35.55 8.80L35.55 41.20Q35.55 42.15 35.13 42.58Q34.70 43 33.75 43L26.05 43Q25.10 43 24.68 42.58Q24.25 42.15 24.25 41.20L24.25 23.60L21.30 29.05Q20.85 29.90 20.23 30.27Q19.60 30.65 18.65 30.65L16.65 30.65Q15.70 30.65 15.08 30.27Q14.45 29.90 14 29.05L11.05 23.60L11.05 41.20Q11.05 42.15 10.63 42.58Q10.20 43 9.25 43ZM67.45 43L44.25 43Q43.30 43 42.88 42.58Q42.45 42.15 42.45 41.20L42.45 8.80Q42.45 7.85 42.88 7.42Q43.30 7 44.25 7L67.45 7Q68.40 7 68.83 7.42Q69.25 7.85 69.25 8.80L69.25 14.65Q69.25 15.60 68.83 16.02Q68.40 16.45 67.45 16.45L53.65 16.45L53.65 20.30L63.40 20.30Q64.35 20.30 64.78 20.72Q65.20 21.15 65.20 22.10L65.20 27.45Q65.20 28.40 64.78 28.82Q64.35 29.25 63.40 29.25L53.65 29.25L53.65 33.55L67.45 33.55Q68.40 33.55 68.83 33.98Q69.25 34.40 69.25 35.35L69.25 41.20Q69.25 42.15 68.83 42.58Q68.40 43 67.45 43ZM92.15 43L84.05 43Q83.10 43 82.68 42.58Q82.25 42.15 82.25 41.20L82.25 16.65L74.90 16.65Q73.95 16.65 73.53 16.22Q73.10 15.80 73.10 14.85L73.10 8.80Q73.10 7.85 73.53 7.42Q73.95 7 74.90 7L101.30 7Q102.25 7 102.68 7.42Q103.10 7.85 103.10 8.80L103.10 14.85Q103.10 15.80 102.68 16.22Q102.25 16.65 101.30 16.65L93.95 16.65L93.95 41.20Q93.95 42.15 93.53 42.58Q93.10 43 92.15 43ZM119 17.50L116.65 25.10L124.50 25.10L122.15 17.50Q121.95 17.05 121.72 16.85Q121.50 16.65 121.20 16.65L119.95 16.65Q119.65 16.65 119.42 16.85Q119.20 17.05 119 17.50M116.15 41.20Q116.15 42.15 115.72 42.58Q115.30 43 114.35 43L107 43Q106.05 43 105.63 42.58Q105.20 42.15 105.20 41.20L105.20 28Q105.20 26.50 105.67 24.55Q106.15 22.60 107.15 20L111.50 8.65Q111.80 7.80 112.42 7.40Q113.05 7 114.05 7L127.50 7Q128.45 7 129.07 7.40Q129.70 7.80 130 8.65L134.35 20Q135.35 22.60 135.82 24.55Q136.30 26.50 136.30 28L136.30 41.20Q136.30 42.15 135.88 42.58Q135.45 43 134.50 43L126.95 43Q125.95 43 125.47 42.58Q125 42.15 125 41.20L125 34.20L116.15 34.20L116.15 41.20ZM169.70 43L144.25 43Q143.30 43 142.88 42.58Q142.45 42.15 142.45 41.20L142.45 8.80Q142.45 7.85 142.88 7.42Q143.30 7 144.25 7L152 7Q152.95 7 153.38 7.42Q153.80 7.85 153.80 8.80L153.80 33.55L160.65 33.55L160.65 25.45Q160.65 24.50 161.07 24.07Q161.50 23.65 162.45 23.65L169.70 23.65Q170.65 23.65 171.07 24.07Q171.50 24.50 171.50 25.45L171.50 41.20Q171.50 42.15 171.07 42.58Q170.65 43 169.70 43ZM204.45 43L179 43Q178.05 43 177.63 42.58Q177.20 42.15 177.20 41.20L177.20 8.80Q177.20 7.85 177.63 7.42Q178.05 7 179 7L186.75 7Q187.70 7 188.13 7.42Q188.55 7.85 188.55 8.80L188.55 33.55L195.40 33.55L195.40 25.45Q195.40 24.50 195.82 24.07Q196.25 23.65 197.20 23.65L204.45 23.65Q205.40 23.65 205.82 24.07Q206.25 24.50 206.25 25.45L206.25 41.20Q206.25 42.15 205.82 42.58Q205.40 43 204.45 43ZM242.60 33.55Q242.60 35.85 241.93 37.73Q241.25 39.60 239.53 40.92Q237.80 42.25 234.80 43Q231.80 43.75 227.15 43.75Q222.50 43.75 219.50 43Q216.50 42.25 214.78 40.92Q213.05 39.60 212.38 37.73Q211.70 35.85 211.70 33.55L211.70 8.80Q211.70 7.85 212.13 7.42Q212.55 7 213.50 7L221.35 7Q222.30 7 222.72 7.42Q223.15 7.85 223.15 8.80L223.15 31.60Q223.15 32.60 223.90 33.27Q224.65 33.95 227.25 33.95Q229.90 33.95 230.65 33.27Q231.40 32.60 231.40 31.60L231.40 8.80Q231.40 7.85 231.82 7.42Q232.25 7 233.20 7L240.80 7Q241.75 7 242.18 7.42Q242.60 7.85 242.60 8.80L242.60 33.55ZM260.55 16L260.55 22.40L264.30 22.40Q265.60 22.40 266.05 21.72Q266.50 21.05 266.50 20.05L266.50 18.35Q266.50 17.35 266.05 16.67Q265.60 16 264.30 16L260.55 16M258.75 43L251.05 43Q250.10 43 249.68 42.58Q249.25 42.15 249.25 41.20L249.25 8.80Q249.25 7.85 249.68 7.42Q250.10 7 251.05 7L267.70 7Q273.30 7 275.43 9.32Q277.55 11.65 277.55 15.35L277.55 17.65Q277.55 19.75 276.93 21.22Q276.30 22.70 274.75 23.35Q277.45 23.65 279.13 25.55Q280.80 27.45 280.80 30.60L280.80 41.20Q280.80 42.15 280.38 42.58Q279.95 43 279 43L271.25 43Q270.30 43 269.88 42.58Q269.45 42.15 269.45 41.20L269.45 33.55Q269.45 32.45 269.03 31.92Q268.60 31.40 267.55 31.40L260.55 31.40L260.55 41.20Q260.55 42.15 260.13 42.58Q259.70 43 258.75 43ZM313.65 43L297.90 43Q291.65 43 288.63 40.50Q285.60 38 285.60 32.80L285.60 17.20Q285.60 12 288.63 9.50Q291.65 7 297.90 7L310.40 7Q311.35 7 311.77 7.42Q312.20 7.85 312.20 8.80L312.20 14.85Q312.20 15.80 311.77 16.22Q311.35 16.65 310.40 16.65L300 16.65Q298.45 16.65 297.70 17.27Q296.95 17.90 296.95 19.15L296.95 31.10Q296.95 32.35 297.52 32.95Q298.10 33.55 299.25 33.55L304.10 33.55L304.10 25.75Q304.10 24.80 304.52 24.38Q304.95 23.95 305.90 23.95L313.65 23.95Q314.60 23.95 315.02 24.38Q315.45 24.80 315.45 25.75L315.45 41.20Q315.45 42.15 315.02 42.58Q314.60 43 313.65 43ZM339.35 35.85L329.20 35.85L320.75 24.55Q319.60 23 319.22 21.85Q318.85 20.70 318.85 18.40L318.85 8.80Q318.85 7.85 319.27 7.42Q319.70 7 320.65 7L328.35 7Q329.30 7 329.72 7.42Q330.15 7.85 330.15 8.80L330.15 17Q330.15 17.50 330.20 18.05Q330.25 18.60 330.60 19.10L332.90 22.70Q333.15 23.15 333.42 23.35Q333.70 23.55 334.10 23.55L334.60 23.55Q335.00 23.55 335.27 23.35Q335.55 23.15 335.80 22.70L338.10 19.10Q338.45 18.60 338.50 18.05Q338.55 17.50 338.55 17L338.55 8.80Q338.55 7.85 338.97 7.42Q339.40 7 340.35 7L347.80 7Q348.75 7 349.17 7.42Q349.60 7.85 349.60 8.80L349.60 18.40Q349.60 20.70 349.20 21.85Q348.80 23 347.70 24.55L339.35 35.85M338.30 43L330.20 43Q329.25 43 328.82 42.58Q328.40 42.15 328.40 41.20L328.40 31.80L340.10 31.80L340.10 41.20Q340.10 42.15 339.67 42.58Q339.25 43 338.30 43Z"/></g><g fill="#0d6efd" transform="translate(0, 57)"><path d=""/></g></g></svg>