<svg xmlns="http://www.w3.org/2000/svg" viewBox="0 9.470000267028809 226.49000549316406 46.31999969482422" data-asc="0.9052734375"><g fill="#000000"><g fill="#000000" transform="translate(0, 0)"><path d="M0 45.26L0 9.47L7.13 9.47L15.60 34.81Q16.77 38.35 17.31 40.11Q17.92 38.16 19.21 34.38L27.78 9.47L34.16 9.47L34.16 45.26L29.59 45.26L29.59 15.31L19.19 45.26L14.92 45.26L4.57 14.79L4.57 45.26L0 45.26ZM58.98 36.91L63.53 37.48Q62.45 41.46 59.55 43.65Q56.64 45.85 52.12 45.85Q46.44 45.85 43.10 42.35Q39.77 38.84 39.77 32.52Q39.77 25.98 43.14 22.36Q46.51 18.75 51.88 18.75Q57.08 18.75 60.38 22.29Q63.67 25.83 63.67 32.25Q63.67 32.64 63.65 33.42L44.31 33.42Q44.56 37.70 46.73 39.97Q48.90 42.24 52.15 42.24Q54.57 42.24 56.27 40.97Q57.98 39.70 58.98 36.91M44.56 29.81L59.03 29.81Q58.74 26.54 57.37 24.90Q55.27 22.36 51.93 22.36Q48.90 22.36 46.84 24.39Q44.78 26.42 44.56 29.81ZM78.64 41.33L79.27 45.21Q77.42 45.61 75.95 45.61Q73.56 45.61 72.24 44.85Q70.92 44.09 70.39 42.86Q69.85 41.63 69.85 37.67L69.85 22.75L66.63 22.75L66.63 19.34L69.85 19.34L69.85 12.92L74.22 10.28L74.22 19.34L78.64 19.34L78.64 22.75L74.22 22.75L74.22 37.92Q74.22 39.79 74.45 40.33Q74.68 40.87 75.21 41.19Q75.73 41.50 76.71 41.50Q77.44 41.50 78.64 41.33ZM99.85 42.07Q97.41 44.14 95.15 45.00Q92.90 45.85 90.31 45.85Q86.04 45.85 83.74 43.76Q81.45 41.67 81.45 38.43Q81.45 36.52 82.31 34.95Q83.18 33.37 84.58 32.42Q85.99 31.47 87.74 30.98Q89.04 30.64 91.65 30.32Q96.97 29.69 99.49 28.81Q99.51 27.91 99.51 27.66Q99.51 24.98 98.27 23.88Q96.58 22.39 93.26 22.39Q90.16 22.39 88.68 23.47Q87.21 24.56 86.50 27.32L82.20 26.73Q82.79 23.97 84.13 22.28Q85.47 20.58 88.01 19.67Q90.55 18.75 93.90 18.75Q97.22 18.75 99.29 19.53Q101.37 20.31 102.34 21.50Q103.32 22.68 103.71 24.49Q103.93 25.61 103.93 28.54L103.93 34.40Q103.93 40.53 104.21 42.15Q104.49 43.77 105.32 45.26L100.73 45.26Q100.05 43.90 99.85 42.07M99.49 32.25Q97.09 33.23 92.31 33.91Q89.60 34.30 88.48 34.79Q87.35 35.28 86.74 36.22Q86.13 37.16 86.13 38.31Q86.13 40.06 87.46 41.24Q88.79 42.41 91.36 42.41Q93.90 42.41 95.87 41.30Q97.85 40.19 98.78 38.26Q99.49 36.77 99.49 33.86L99.49 32.25ZM110.64 45.26L110.64 9.47L115.04 9.47L115.04 45.26L110.64 45.26ZM121.75 45.26L121.75 9.47L126.15 9.47L126.15 45.26L121.75 45.26ZM149.95 45.26L149.95 41.46Q146.92 45.85 141.72 45.85Q139.43 45.85 137.44 44.97Q135.45 44.09 134.48 42.76Q133.52 41.43 133.13 39.50Q132.86 38.21 132.86 35.40L132.86 19.34L137.26 19.34L137.26 33.72Q137.26 37.16 137.52 38.35Q137.94 40.09 139.28 41.08Q140.63 42.07 142.60 42.07Q144.58 42.07 146.31 41.05Q148.05 40.04 148.77 38.29Q149.49 36.55 149.49 33.23L149.49 19.34L153.88 19.34L153.88 45.26L149.95 45.26ZM160.72 45.26L160.72 19.34L164.67 19.34L164.67 23.27Q166.19 20.51 167.47 19.63Q168.75 18.75 170.29 18.75Q172.51 18.75 174.80 20.17L173.29 24.24Q171.68 23.29 170.07 23.29Q168.63 23.29 167.48 24.16Q166.33 25.02 165.84 26.56Q165.11 28.91 165.11 31.69L165.11 45.26L160.72 45.26ZM176.61 47.41L180.88 48.05Q181.15 50.02 182.37 50.93Q184.01 52.15 186.84 52.15Q189.89 52.15 191.55 50.93Q193.21 49.71 193.80 47.51Q194.14 46.17 194.12 41.87Q191.24 45.26 186.94 45.26Q181.59 45.26 178.66 41.41Q175.73 37.55 175.73 32.15Q175.73 28.44 177.08 25.31Q178.42 22.17 180.97 20.46Q183.52 18.75 186.96 18.75Q191.55 18.75 194.53 22.46L194.53 19.34L198.58 19.34L198.58 41.75Q198.58 47.80 197.35 50.33Q196.12 52.86 193.44 54.32Q190.77 55.79 186.87 55.79Q182.23 55.79 179.37 53.70Q176.51 51.61 176.61 47.41M180.25 31.84Q180.25 36.94 182.28 39.28Q184.30 41.63 187.35 41.63Q190.38 41.63 192.43 39.29Q194.48 36.96 194.48 31.98Q194.48 27.22 192.37 24.80Q190.26 22.39 187.28 22.39Q184.35 22.39 182.30 24.77Q180.25 27.15 180.25 31.84ZM205.03 55.25L204.54 51.12Q205.98 51.51 207.06 51.51Q208.52 51.51 209.40 51.03Q210.28 50.54 210.84 49.66Q211.25 49.00 212.18 46.39Q212.30 46.02 212.57 45.31L202.73 19.34L207.47 19.34L212.87 34.35Q213.92 37.21 214.75 40.36Q215.50 37.33 216.55 34.45L222.09 19.34L226.49 19.34L216.63 45.70Q215.04 49.98 214.16 51.59Q212.99 53.76 211.47 54.77Q209.96 55.79 207.86 55.79Q206.59 55.79 205.03 55.25Z"/></g><g fill="#000000" transform="translate(0, 60.595703125)"><path d=""/></g></g></svg>